<svg width="203" height="152" xmlns="http://www.w3.org/2000/svg" xmlns:xlink="http://www.w3.org/1999/xlink" xmlns:svgjs="http://svgjs.com/svgjs" viewBox="0.568 0 201.865 152" fill="#fcee21"><svg xmlns="http://www.w3.org/2000/svg" width="203" height="152" viewBox="0.931 0.044 201.203 151.502"><path paint-order="stroke fill markers" fill-rule="evenodd" d="M91.368 151.546c-.279 0-.837 0-1.116-.279-1.673-.558-2.789-1.953-3.068-3.626l-6.415-71.959-9.204 5.02c-1.394.837-3.068.558-4.462-.279L2.673 35.24C1.28 34.124.723 32.451 1.002 30.777c.279-1.673 1.673-3.068 3.626-3.068L197.354.097c1.674-.279 3.347.558 4.184 1.952.837 1.395.837 3.347-.279 4.742L94.715 149.872c-.558 1.116-1.952 1.674-3.347 1.674zm-2.79-81.721l5.858 66.381 88.136-118.538-93.993 52.157zM16.342 34.403l52.156 36.816 107.66-59.687L16.34 34.403z"/></svg></svg>